# xmcd
#
# Track frame offsets:
#	150
#	29092
#	61906
#	81186
#	103806
#	133407
#	169941
#	198966
#	217440
#
# Disc length: 3288 seconds
#
# Revision: 1
# Processed by: cddbd v1.5.2PL0 Copyright (c) Steve Scherf et al.
# Submitted via: audiograbber 1.83.01
#
DISCID=8f0cd609
DTITLE=Stephen Fry - Der Lügner
DYEAR=2007
DGENRE=Speech
TTITLE0=101_01 - Kein Wort des Folgenden ist wahr
TTITLE1=102_02 - Seufzend war er zu seiner eigenen Schlafnische
TTITLE2=103_03 - Samson erschien in der Tür
TTITLE3=104_04 - Adrian hetzte den Korridor entlang
TTITLE4=105_05 - Er schleppte sich zu den Klassenräumen zurück
TTITLE5=106_06 - Tom, Adrian und Schweinchen Trotter
TTITLE6=107_07 - Kapitel 2
TTITLE7=108_08 - Du siehst also
TTITLE8=109_09 - Gerry sah Trefusis sein Zimmer verlassen
EXTD=gelesen von Daniel Brühl
EXTT0=
EXTT1=
EXTT2=
EXTT3=
EXTT4=
EXTT5=
EXTT6=
EXTT7=
EXTT8=
PLAYORDER=
